<?xml version="1.0" standalone="no"?>
<!DOCTYPE svg PUBLIC "-//W3C//DTD SVG 20010904//EN"
 "http://www.w3.org/TR/2001/REC-SVG-20010904/DTD/svg10.dtd">
<svg version="1.0" xmlns="http://www.w3.org/2000/svg"
 width="571.000000pt" height="238.000000pt" viewBox="0 0 571.000000 238.000000"
 preserveAspectRatio="xMidYMid meet">

<g transform="translate(0.000000,238.000000) scale(0.100000,-0.100000)"
fill="#000000" stroke="none">
<path d="M85 2270 c-11 -17 3 -27 48 -34 62 -10 105 -40 128 -90 18 -41 19
-72 19 -527 0 -288 -4 -498 -9 -518 -21 -71 -62 -105 -144 -119 -28 -5 -43
-13 -45 -25 -3 -16 19 -17 312 -17 309 0 316 0 316 20 0 14 -7 20 -24 20 -35
0 -88 20 -114 44 -54 48 -57 61 -60 344 l-4 262 53 0 c87 0 168 -28 214 -74
40 -41 58 -82 71 -163 5 -33 11 -43 25 -43 18 0 19 13 21 250 1 138 2 271 3
297 0 37 -4 48 -17 51 -13 2 -18 -7 -23 -45 -21 -147 -117 -223 -282 -223
l-63 0 0 276 0 276 168 -4 c145 -3 173 -6 214 -25 96 -44 153 -107 193 -215
10 -27 20 -48 24 -48 25 1 27 21 15 145 -7 72 -13 145 -13 163 l-1 32 -509 0
c-329 0 -512 -4 -516 -10z"/>
<path d="M900 1626 c0 -10 9 -16 25 -16 14 0 37 -11 50 -25 l25 -24 0 -268 c0
-297 -2 -305 -62 -321 -18 -4 -33 -13 -36 -20 -3 -9 37 -12 162 -12 141 0 166
2 166 15 0 9 -9 15 -25 15 -14 0 -37 11 -50 25 -24 23 -25 30 -25 150 l0 125
31 0 c55 0 104 -69 193 -272 l25 -58 190 0 c159 0 191 2 191 14 0 8 -10 16
-21 18 -12 2 -31 15 -42 30 l-21 28 30 87 30 88 109 0 109 0 33 -80 c18 -44
33 -88 33 -97 0 -26 -36 -58 -65 -58 -16 0 -25 -6 -25 -15 0 -13 39 -15 290
-15 251 0 290 2 290 15 0 9 -9 15 -25 15 -14 0 -37 11 -50 25 l-25 24 0 248
c0 141 4 243 9 237 5 -5 106 -133 226 -284 122 -154 226 -276 236 -278 18 -3
19 9 19 298 0 210 4 308 12 323 16 30 39 46 66 47 13 0 22 6 22 15 0 13 -20
15 -120 15 -100 0 -120 -2 -120 -15 0 -9 9 -15 25 -15 14 0 37 -11 50 -25 25
-24 25 -24 25 -235 l0 -211 -194 248 -193 248 -102 3 c-85 2 -101 0 -101 -13
0 -9 9 -15 24 -15 13 0 34 -9 47 -19 24 -19 24 -20 27 -282 2 -145 0 -274 -3
-286 -8 -33 -47 -55 -99 -55 -87 0 -81 -9 -242 381 -63 151 -118 279 -123 284
-5 5 -16 7 -23 4 -8 -2 -60 -126 -117 -273 -57 -148 -113 -286 -123 -308 -42
-83 -97 -108 -138 -64 -11 13 -48 77 -82 143 -33 66 -67 127 -75 137 -13 15
-11 18 22 34 95 45 125 175 57 255 -52 63 -93 72 -319 77 -182 4 -203 3 -203
-12z m358 -42 c40 -26 62 -74 62 -133 0 -92 -58 -151 -149 -151 l-41 0 0 156
0 157 53 -7 c28 -4 62 -14 75 -22z m632 -219 c22 -54 40 -102 40 -107 0 -4
-38 -8 -85 -8 -47 0 -85 2 -85 4 0 4 44 125 69 190 7 16 14 27 16 24 3 -3 23
-49 45 -103z"/>
<path d="M3040 1625 c0 -9 9 -15 24 -15 14 0 38 -11 53 -24 l28 -24 0 -270 0
-270 -24 -26 c-13 -14 -35 -26 -49 -28 -14 -2 -27 -9 -30 -15 -3 -10 34 -13
162 -13 141 0 166 2 166 15 0 9 -9 15 -24 15 -13 0 -34 9 -47 19 -23 18 -24
27 -27 148 -5 178 1 181 104 50 111 -142 126 -164 122 -189 -2 -16 -12 -24
-32 -28 -17 -3 -30 -9 -30 -15 -1 -16 925 -19 936 -3 4 7 8 57 8 111 0 76 -3
97 -14 97 -8 0 -17 -15 -21 -37 -9 -51 -48 -109 -87 -129 -47 -24 -145 -30
-190 -11 -71 30 -73 40 -73 323 0 234 1 253 19 273 11 12 32 25 48 29 15 4 28
12 28 17 0 6 -60 10 -160 10 -100 0 -160 -4 -160 -10 0 -5 13 -13 28 -17 16
-4 37 -17 48 -29 17 -19 19 -41 22 -263 2 -132 0 -256 -3 -274 -9 -47 -37 -72
-83 -72 -66 0 -113 41 -262 230 l-139 175 107 103 c59 57 126 113 150 123 23
11 40 24 37 30 -4 5 -55 9 -116 9 -90 0 -109 -3 -109 -15 0 -8 8 -15 18 -15
22 0 42 -19 42 -40 0 -8 -54 -69 -120 -135 l-120 -120 0 113 c0 138 18 181 78
182 13 0 22 6 22 15 0 13 -25 15 -165 15 -140 0 -165 -2 -165 -15z"/>
<path d="M4390 1625 c0 -9 9 -15 25 -15 14 0 37 -11 50 -25 l25 -24 0 -271 0
-271 -25 -24 c-13 -14 -36 -25 -50 -25 -16 0 -25 -6 -25 -15 0 -13 25 -15 166
-15 125 0 165 3 162 12 -3 7 -18 16 -36 20 -60 16 -62 24 -62 321 l0 268 25
24 c13 14 36 25 50 25 16 0 25 6 25 15 0 13 -25 15 -165 15 -140 0 -165 -2
-165 -15z"/>
<path d="M4755 1630 c-3 -6 2 -13 12 -16 40 -12 68 -31 80 -54 16 -32 18 -492
3 -537 -11 -29 -36 -49 -73 -55 -10 -2 -19 -7 -20 -13 -1 -6 46 -11 121 -13
104 -2 122 0 122 13 0 9 -9 15 -25 15 -14 0 -37 11 -50 25 -24 23 -25 29 -26
167 -1 135 -1 168 0 297 l1 53 82 -103 c285 -363 373 -469 388 -467 13 3 16
45 20 317 l5 313 24 19 c13 10 34 19 47 19 15 0 24 6 24 15 0 13 -20 15 -120
15 -100 0 -120 -2 -120 -15 0 -9 9 -15 23 -15 28 0 65 -32 72 -63 3 -12 4
-108 3 -213 l-3 -191 -90 115 c-49 63 -137 175 -194 249 l-103 133 -99 0 c-55
0 -101 -4 -104 -10z"/>
<path d="M193 811 c-44 -28 -63 -69 -63 -139 0 -97 49 -152 138 -152 69 0 132
44 132 92 0 26 -37 23 -51 -4 -18 -34 -40 -47 -79 -48 -48 0 -77 23 -90 71
-14 51 -3 107 26 136 42 42 128 25 146 -27 4 -14 48 -5 48 11 0 5 -13 23 -29
41 -24 27 -36 32 -87 35 -46 3 -66 0 -91 -16z"/>
<path d="M532 810 c-37 -23 -72 -88 -72 -135 0 -47 35 -112 72 -135 69 -42
174 -16 210 51 22 42 23 119 2 165 -34 70 -140 98 -212 54z m141 -40 c56 -44
58 -140 5 -185 -32 -27 -84 -33 -119 -15 -62 34 -64 173 -2 209 30 17 88 13
116 -9z"/>
<path d="M840 676 c0 -148 1 -156 20 -156 18 0 20 8 22 118 l3 117 40 -115
c33 -94 44 -116 61 -118 19 -3 26 10 60 110 l39 113 5 -110 c5 -105 6 -110 28
-113 l22 -3 0 156 0 156 -32 -3 c-33 -3 -34 -5 -73 -120 -22 -65 -42 -118 -45
-118 -3 0 -23 53 -46 118 -40 114 -42 117 -72 120 l-32 3 0 -155z"/>
<path d="M1225 818 c-3 -8 -4 -77 -3 -153 3 -137 4 -140 26 -143 22 -3 22 -2
23 115 l0 118 42 -118 c56 -156 66 -156 124 3 l42 115 0 -118 c1 -117 1 -118
24 -115 22 3 22 5 22 153 l0 150 -30 3 c-30 3 -30 2 -69 -110 -21 -62 -42
-117 -46 -121 -4 -5 -25 45 -47 110 -39 116 -40 118 -71 121 -20 2 -34 -2 -37
-10z"/>
<path d="M1617 823 c-11 -10 -8 -184 3 -225 15 -53 51 -78 112 -78 59 0 105
22 118 56 6 14 10 77 10 140 0 105 -1 114 -19 114 -17 0 -19 -10 -23 -116 -3
-107 -5 -117 -27 -135 -27 -22 -79 -25 -107 -5 -17 13 -19 29 -22 135 -3 107
-6 121 -21 121 -10 0 -21 -3 -24 -7z"/>
<path d="M1950 674 l0 -155 23 3 c21 3 22 7 22 111 0 59 2 107 5 107 3 0 39
-50 80 -110 58 -85 80 -110 98 -110 22 0 22 1 22 155 0 148 -1 155 -20 155
-19 0 -20 -7 -20 -110 0 -60 -3 -110 -7 -110 -5 0 -41 50 -82 110 -59 87 -80
110 -98 110 l-23 0 0 -156z"/>
<path d="M2300 675 l0 -156 23 3 c22 3 22 5 22 153 0 148 0 150 -22 153 l-23
3 0 -156z"/>
<path d="M2420 810 c0 -17 6 -20 50 -20 l50 0 0 -135 c0 -128 1 -135 20 -135
18 0 20 8 22 133 l3 132 53 3 c44 3 53 6 50 20 -3 15 -20 17 -126 20 -117 2
-122 2 -122 -18z"/>
<path d="M2700 825 c0 -3 27 -44 60 -92 58 -83 60 -88 60 -150 0 -56 2 -63 20
-63 18 0 20 7 20 63 0 62 2 66 60 148 33 46 60 87 60 91 0 5 -10 8 -22 8 -17
0 -35 -18 -69 -70 l-46 -71 -46 71 c-37 55 -52 70 -72 70 -14 0 -25 -2 -25 -5z"/>
<path d="M3228 815 c-50 -28 -48 -107 2 -132 14 -6 52 -20 85 -30 50 -15 61
-22 63 -42 8 -53 -88 -72 -133 -26 -14 13 -25 29 -25 35 0 5 -9 10 -20 10 -42
0 -15 -72 37 -99 30 -15 109 -14 142 3 26 14 51 53 51 80 0 33 -43 66 -113 87
-87 26 -103 42 -71 73 29 30 124 15 124 -19 0 -9 10 -15 26 -15 22 0 24 3 19
23 -13 43 -41 60 -102 64 -39 2 -67 -2 -85 -12z"/>
<path d="M3563 810 c-60 -36 -82 -100 -63 -179 16 -69 55 -103 123 -109 37 -3
63 1 85 12 33 17 67 69 57 86 -9 15 -45 12 -45 -3 0 -25 -45 -57 -81 -57 -46
0 -76 23 -90 69 -25 85 17 161 90 161 38 0 61 -13 78 -45 5 -9 17 -12 30 -9
21 6 22 8 8 35 -30 58 -129 78 -192 39z"/>
<path d="M3850 675 c0 -148 1 -155 20 -155 18 0 20 7 20 70 l0 70 80 0 80 0 0
-71 c0 -67 1 -70 23 -67 22 3 22 5 22 153 0 148 0 150 -22 153 -22 3 -23 0
-23 -57 l0 -61 -80 0 -80 0 0 60 c0 53 -2 60 -20 60 -19 0 -20 -7 -20 -155z"/>
<path d="M4243 810 c-63 -38 -88 -129 -55 -203 26 -58 70 -87 132 -87 95 0
151 57 151 154 0 100 -52 156 -146 156 -32 0 -62 -7 -82 -20z m130 -31 c35
-16 52 -54 51 -112 0 -43 -5 -54 -32 -79 -71 -63 -172 -15 -172 82 0 40 23 95
47 109 24 14 76 14 106 0z"/>
<path d="M4606 811 c-46 -31 -66 -69 -66 -131 0 -68 24 -117 71 -142 45 -24
115 -23 157 2 37 23 72 88 72 135 0 47 -35 112 -72 135 -43 26 -122 27 -162 1z
m135 -31 c26 -15 49 -62 49 -105 0 -104 -97 -153 -172 -86 -29 26 -32 34 -32
86 0 52 3 60 32 86 34 31 85 39 123 19z"/>
<path d="M4910 676 l0 -156 100 0 c93 0 100 1 100 20 0 18 -7 20 -75 20 l-74
0 -3 133 c-3 128 -4 132 -25 135 l-23 3 0 -155z"/>
<path d="M5225 818 c-31 -17 -45 -39 -45 -74 0 -41 33 -69 101 -83 66 -14 89
-27 89 -51 0 -30 -28 -50 -69 -50 -41 0 -91 31 -91 56 0 8 -9 14 -20 14 -42 0
-15 -72 37 -99 31 -16 109 -14 142 4 35 17 54 65 41 100 -12 32 -43 50 -114
69 -74 19 -91 39 -60 70 31 31 124 13 124 -25 0 -5 11 -9 24 -9 23 0 24 2 14
30 -5 17 -23 37 -39 45 -33 17 -105 19 -134 3z"/>
<path d="M1434 425 c-35 -54 4 -135 65 -135 33 0 42 7 34 26 -5 13 -8 12 -23
-1 -17 -15 -20 -15 -39 4 -43 43 -16 147 27 107 24 -21 31 -20 25 4 -8 31 -68
28 -89 -5z"/>
<path d="M1263 415 c-6 -14 -7 -25 -3 -25 5 0 10 -16 12 -36 3 -42 26 -61 54
-49 18 8 17 9 -3 12 -14 3 -23 12 -23 23 0 10 -3 25 -6 34 -4 11 2 19 17 25
l24 10 -22 0 c-14 1 -23 7 -23 16 0 23 -14 18 -27 -10z"/>
<path d="M959 423 c-1 -5 0 -18 0 -29 1 -14 -5 -23 -17 -26 -30 -8 -54 -51
-46 -83 8 -34 22 -39 74 -25 32 9 40 14 31 23 -6 6 -11 31 -11 56 0 54 -9 91
-21 91 -5 0 -9 -3 -10 -7z m6 -113 c0 -28 -4 -35 -20 -35 -13 0 -21 8 -23 23
-5 34 5 54 25 50 13 -2 18 -13 18 -38z"/>
<path d="M1159 403 c-25 -4 -26 -6 -18 -41 5 -20 6 -45 3 -54 -4 -13 0 -18 14
-18 17 0 19 6 14 51 -4 46 -3 51 14 47 15 -3 19 -12 19 -46 0 -36 3 -42 21
-42 22 0 22 9 -2 98 -3 12 -14 13 -65 5z"/>
<path d="M1040 380 c-22 -22 -26 -51 -10 -81 12 -22 52 -25 69 -6 8 11 5 13
-19 9 -42 -6 -42 26 0 35 35 7 41 36 11 53 -26 13 -28 13 -51 -10z m48 -18 c2
-7 -6 -12 -17 -12 -21 0 -27 11 -14 24 9 9 26 2 31 -12z"/>
<path d="M3488 383 c-35 -39 -34 -113 1 -113 18 0 68 46 59 55 -2 3 -13 -4
-23 -15 -22 -25 -35 -26 -35 -2 0 10 14 26 31 36 18 11 29 24 27 34 -4 24 -41
26 -60 5z m37 -12 c3 -6 -3 -15 -14 -20 -28 -16 -33 -14 -21 9 12 22 25 26 35
11z"/>
<path d="M1567 383 c-13 -12 -7 -72 9 -87 18 -18 60 -21 70 -5 4 7 0 9 -14 5
-12 -4 -26 -1 -36 9 -25 25 -19 34 19 28 37 -6 43 3 25 38 -10 19 -59 27 -73
12z m51 -21 c2 -7 -6 -12 -17 -12 -21 0 -27 11 -14 24 9 9 26 2 31 -12z"/>
<path d="M1678 326 c3 -42 8 -55 22 -59 16 -4 18 0 13 29 -3 18 -3 41 1 50 5
14 9 14 22 3 11 -9 15 -25 12 -51 -2 -21 0 -38 3 -38 4 0 15 -3 23 -6 14 -5
15 -2 6 21 -5 14 -10 36 -10 48 0 33 -11 43 -55 50 l-40 6 3 -53z"/>
<path d="M1802 360 c-7 -12 -8 -20 -2 -20 5 0 10 -14 10 -31 0 -45 16 -69 48
-68 25 0 25 1 6 9 -29 12 -39 80 -12 80 10 0 18 5 18 10 0 6 -9 10 -20 10 -11
0 -20 7 -20 15 0 21 -13 19 -28 -5z"/>
<path d="M1340 360 c0 -5 14 -10 30 -10 17 0 30 5 30 10 0 6 -13 10 -30 10
-16 0 -30 -4 -30 -10z"/>
<path d="M3412 343 c-6 -2 -9 -9 -6 -15 3 -5 3 -26 -1 -46 l-7 -37 -14 28 c-8
15 -12 32 -9 37 7 12 -5 13 -23 1 -11 -6 -9 -17 9 -55 13 -25 27 -45 33 -43 5
2 15 22 21 44 29 96 28 99 -3 86z"/>
<path d="M831 331 c-9 -6 -10 -11 -2 -15 15 -10 14 -71 -2 -85 -19 -15 -27 -4
-27 41 0 25 -5 38 -13 38 -23 0 -24 -8 -12 -58 13 -52 14 -52 67 -34 32 12 36
16 28 32 -6 10 -10 35 -10 54 0 37 -5 42 -29 27z"/>
<path d="M1902 328 c-18 -18 -14 -73 6 -91 22 -20 58 -22 68 -5 5 7 2 9 -8 5
-17 -6 -58 18 -58 34 0 6 14 7 35 3 28 -5 35 -3 35 10 0 19 -35 56 -53 56 -7
0 -18 -5 -25 -12z m43 -19 c10 -15 -1 -23 -20 -15 -9 3 -13 10 -10 16 8 13 22
13 30 -1z"/>
<path d="M3297 334 c-4 -4 -7 -14 -7 -23 0 -11 3 -12 11 -4 6 6 10 16 7 23 -2
6 -7 8 -11 4z"/>
<path d="M2005 298 c3 -13 7 -39 9 -58 3 -28 8 -35 27 -37 13 -1 18 0 12 3
-14 6 -18 84 -5 84 4 0 13 -5 20 -12 9 -9 12 -7 12 11 0 20 -4 22 -24 17 -14
-3 -28 -2 -31 4 -12 19 -25 10 -20 -12z"/>
<path d="M2287 286 c4 -21 2 -24 -16 -19 -28 7 -51 -13 -51 -46 0 -38 22 -64
56 -67 16 -1 38 -5 49 -10 16 -6 18 -5 8 7 -7 7 -13 29 -13 48 0 59 -12 111
-25 111 -8 0 -10 -9 -8 -24z m4 -63 c12 -32 5 -53 -16 -53 -17 0 -39 46 -31
67 9 22 36 14 47 -14z"/>
<path d="M691 278 c-5 -13 -5 -27 0 -33 5 -5 9 -24 9 -42 0 -26 4 -33 19 -33
10 0 24 6 30 14 9 11 8 14 -6 12 -26 -2 -31 60 -6 81 16 13 17 14 1 9 -10 -3
-18 -1 -18 4 0 19 -21 10 -29 -12z"/>
<path d="M609 260 c-41 -40 -37 -74 9 -78 23 -2 32 -8 32 -21 0 -24 -25 -45
-45 -38 -17 7 -27 -4 -16 -21 11 -18 69 22 77 53 9 38 -2 55 -36 55 -34 0 -40
18 -12 43 14 13 21 14 30 5 9 -9 12 -7 12 10 0 30 -16 28 -51 -8z"/>
<path d="M2112 278 c-24 -24 -9 -78 29 -98 22 -12 59 -5 59 11 0 6 -9 7 -20 4
-23 -7 -50 10 -50 31 0 9 8 10 32 3 40 -11 46 -5 27 29 -16 30 -57 40 -77 20z
m58 -28 c0 -5 -9 -6 -20 -3 -20 5 -25 15 -13 26 7 8 33 -11 33 -23z"/>
<path d="M3208 273 c-2 -23 0 -51 7 -90 7 -37 33 -45 56 -17 12 15 11 16 -7
10 -19 -6 -22 -2 -26 29 -3 27 1 38 16 50 21 14 21 14 -1 14 -13 1 -23 6 -23
11 0 18 -20 11 -22 -7z"/>
<path d="M3288 285 c-3 -3 -2 -24 2 -47 5 -23 6 -48 3 -55 -6 -14 5 -17 24 -5
8 5 9 20 3 52 -5 25 -9 48 -10 53 0 8 -14 10 -22 2z"/>
<path d="M2518 233 c4 -21 7 -57 7 -80 0 -39 2 -43 24 -43 19 0 21 2 11 15 -7
9 -11 37 -8 75 2 43 -1 61 -10 65 -27 10 -31 4 -24 -32z"/>
<path d="M3104 226 c-10 -8 -16 -18 -11 -22 4 -4 13 -2 19 4 7 7 18 12 25 12
21 0 15 -28 -7 -35 -23 -7 -44 -41 -35 -55 7 -12 38 -13 49 -3 4 4 15 8 24 8
13 0 16 8 14 35 -2 19 -5 43 -8 53 -6 21 -43 22 -70 3z m49 -71 c-7 -19 -33
-20 -33 -1 0 15 20 26 32 19 4 -2 5 -10 1 -18z"/>
<path d="M2410 215 c-10 -12 -10 -18 0 -29 16 -20 42 -8 38 17 -4 26 -21 32
-38 12z"/>
<path d="M3037 209 c8 -8 8 -20 1 -42 l-11 -30 -14 27 c-8 14 -11 31 -8 36 3
6 -5 10 -18 10 l-25 0 30 -56 c17 -31 34 -52 38 -47 4 4 13 26 20 48 7 22 17
46 23 53 7 9 2 12 -19 12 -20 0 -25 -3 -17 -11z"/>
<path d="M2595 154 c0 -49 2 -54 22 -54 20 0 21 3 12 35 -11 38 -6 55 16 55
15 0 31 -62 21 -78 -6 -10 15 -22 37 -22 8 0 7 4 -1 12 -7 7 -12 29 -12 49 0
44 -14 57 -60 57 l-35 0 0 -54z"/>
<path d="M2870 190 c-24 -24 -25 -48 -4 -78 17 -24 53 -29 72 -10 20 20 15 86
-7 98 -28 14 -38 13 -61 -10z m54 -16 c10 -26 7 -51 -7 -63 -20 -16 -37 6 -37
46 0 26 4 33 19 33 10 0 22 -7 25 -16z"/>
<path d="M2728 144 c3 -44 7 -54 22 -54 15 0 16 6 10 40 -5 28 -3 43 6 51 17
14 37 -24 32 -62 -4 -25 -1 -29 20 -29 19 0 22 3 14 13 -6 7 -12 30 -14 52 -3
40 -3 40 -48 42 l-45 2 3 -55z"/>
</g>
</svg>
